PathFileType	4	(X/Y/Z)	C:/Users/opensim2020/Desktop/walking_exp_matlab/subject03_walking13_straight_03.trc	
DataRate	CameraRate	NumFrames	NumMarkers	Units	OrigDataRate	OrigDataStartFrame	OrigNumFrames	
100.00	100.00	7	46	mm	100.00	1783	209	
Frame#	Time	LFHD			RFHD			LBHD			RBHD			C7			T10			CLAV			STRN			RBAK			LSHO			LUPA			LELB			LFRM			LWRA			LWRB			LFIN			RSHO			RUPA			RELB			RFRM			RWRA			RWRB			RFIN			LASI			RASI			LPSI			RPSI			LTHI			LKNE			LTIB			LANK			LHEE			LTOE			RTHI			RKNE			RTIB			RANK			RHEE			RTOE			*39			*40			*41			*42			*43			*44			*45			
		X1	Y1	Z1	X2	Y2	Z2	X3	Y3	Z3	X4	Y4	Z4	X5	Y5	Z5	X6	Y6	Z6	X7	Y7	Z7	X8	Y8	Z8	X9	Y9	Z9	X10	Y10	Z10	X11	Y11	Z11	X12	Y12	Z12	X13	Y13	Z13	X14	Y14	Z14	X15	Y15	Z15	X16	Y16	Z16	X17	Y17	Z17	X18	Y18	Z18	X19	Y19	Z19	X20	Y20	Z20	X21	Y21	Z21	X22	Y22	Z22	X23	Y23	Z23	X24	Y24	Z24	X25	Y25	Z25	X26	Y26	Z26	X27	Y27	Z27	X28	Y28	Z28	X29	Y29	Z29	X30	Y30	Z30	X31	Y31	Z31	X32	Y32	Z32	X33	Y33	Z33	X34	Y34	Z34	X35	Y35	Z35	X36	Y36	Z36	X37	Y37	Z37	X38	Y38	Z38	X39	Y39	Z39	X40	Y40	Z40	X41	Y41	Z41	X42	Y42	Z42	X43	Y43	Z43	X44	Y44	Z44	X45	Y45	Z45	X46	Y46	Z46	

157	1.560	-1033.99573	774.78235	1617.77710	-903.04840	751.60596	1618.69312	-1051.11206	656.99487	1554.32397	-921.88629	639.09186	1555.50330	-995.28204	639.88312	1395.79089	-996.06659	628.22345	1083.52759	-982.58759	766.45355	1328.88062	-981.37109	821.58655	1166.99731	-901.77185	593.02869	1217.93616	-1143.46936	732.56909	1363.49255	-1216.88965	701.65924	1166.62854	-1229.25024	685.53595	1044.27393	-1233.11121	674.38110	913.71960	-1209.42114	647.33478	794.74603	-1264.53137	639.98773	808.03687	-1257.25952	604.19733	726.10480	-827.84387	705.12726	1350.43982	-746.95660	734.22961	1134.77063	-728.48932	777.57025	1034.82654	-731.14081	865.58344	932.35760	-765.43927	950.15991	883.44598	-734.65808	923.07141	849.98053	-736.59351	986.92139	817.30255	-1096.46484	812.66315	937.58325	-863.45380	778.60284	914.54431	-1070.89307	642.68341	955.27484	-921.83282	625.34869	949.28583	-1153.69458	819.72046	641.09143	-1105.27332	864.24451	472.56607	-1113.66919	829.95117	274.01483	-1075.46729	811.80634	66.22454	-1043.98962	767.28558	32.48290	-1036.85986	961.04614	30.75412	-831.71478	700.48138	614.66760	-856.36188	704.04779	434.67151	-859.39386	550.22449	319.20892	-912.38293	376.14981	197.08385	-965.76941	335.74402	226.95744	-947.27844	393.51187	56.79025	-998.10632	676.12024	1661.24707																		 
158	1.570	-1033.26086	788.19885	1619.48279	-902.38403	764.89404	1620.45764	-1050.29749	670.40540	1556.06665	-921.06750	652.45099	1557.40527	-995.38141	653.38507	1397.61963	-996.14417	641.87158	1085.32397	-981.31317	779.80573	1330.78809	-979.68433	835.08459	1168.90491	-902.27905	605.74335	1219.58643	-1142.45007	747.92438	1365.22485	-1216.49255	719.44293	1168.20471	-1229.26550	704.32007	1045.73682	-1233.08887	695.12231	915.04980	-1209.15027	669.54144	795.61029	-1264.51746	662.57306	808.82538	-1257.57068	630.19482	725.91235	-827.18695	716.81549	1351.99231	-747.59802	745.39294	1135.63599	-729.77765	787.65833	1034.96204	-732.35779	874.40137	931.30420	-766.17395	958.57141	881.24884	-735.96655	930.62299	848.00531	-738.34180	993.75177	813.66748	-1096.19202	826.13702	939.11456	-862.71405	791.12573	915.82892	-1070.95288	656.42731	957.04700	-921.96899	638.38861	950.19147	-1153.62488	826.47827	640.50220	-1105.56641	868.95331	471.70355	-1113.86536	832.08362	274.00842	-1075.60120	811.89087	66.28887	-1044.01819	767.22491	32.53465	-1036.86023	961.07971	30.68728	-832.19006	719.87604	615.17657	-856.22101	731.21820	434.95270	-860.27118	577.18005	321.55170	-913.44745	399.77560	204.04912	-967.42688	359.11017	231.72252	-944.50677	419.75119	62.66275																					 
159	1.580	-1032.40820	801.62329	1621.28992	-901.54761	778.26660	1622.38147	-1049.40515	683.76837	1557.91003	-920.18640	665.80194	1559.40564	-995.23621	666.78448	1399.51819	-996.04651	655.30664	1087.15466	-979.94788	793.01428	1332.73303	-977.89594	848.37146	1170.82324	-902.91772	618.29022	1221.16431	-1141.29150	763.07709	1366.97498	-1216.03296	737.65320	1169.78601	-1229.19128	723.50507	1047.21021	-1232.83044	716.22382	916.26001	-1208.99792	692.96301	796.85944	-1264.48560	685.96759	809.68225	-1257.68457	657.16321	725.78723	-826.39618	728.41473	1353.60864	-748.08362	756.31830	1136.52588	-731.02216	797.67877	1035.15051	-733.52124	882.94299	930.13849	-767.08112	966.61102	878.80957	-737.19342	937.80359	845.84796	-739.90778	1000.15222	809.84216	-1095.88928	839.50006	940.43842	-861.93567	803.52643	917.37000	-1070.98706	670.28107	959.16089	-922.08679	651.41156	951.49060	-1153.06055	833.53229	640.13190	-1105.46265	873.42505	471.00299	-1113.90808	833.99866	274.02872	-1074.94910	812.34930	66.43199	-1043.87439	766.46893	33.35174	-1036.84363	961.04144	30.62583	-832.57959	739.23907	616.49945	-855.95349	757.99548	436.59506	-861.44666	603.61432	324.76025	-914.34705	425.44827	209.04695	-968.96667	384.02386	234.60664	-941.70850	448.82443	67.29700	-996.43011	702.28400	1667.69031																		 
160	1.590	-1031.45581	815.03766	1623.11987	-900.61560	791.57471	1624.38818	-1048.46436	697.13257	1559.85034	-919.26117	679.15894	1561.49719	-994.94232	680.04749	1401.45154	-996.00262	668.59473	1088.99548	-978.52496	806.05823	1334.70496	-976.18109	861.54254	1172.82495	-903.67676	630.71625	1222.73145	-1139.97278	777.96533	1368.75745	-1215.04468	755.69403	1171.29749	-1228.85925	743.03314	1048.70911	-1232.33582	737.84668	917.57843	-1208.96313	716.82355	798.11444	-1264.03406	709.85944	810.41315	-1257.56372	684.97040	725.77899	-825.45020	739.77417	1355.29480	-748.45007	767.08441	1137.47217	-732.17389	807.67096	1035.29761	-734.63885	891.25238	928.85516	-767.86023	974.11389	875.97748	-738.28717	944.43646	843.46423	-741.53094	1006.07257	805.70837	-1095.98035	852.50470	941.35114	-861.18958	815.99634	919.13800	-1071.05359	683.70270	961.24011	-922.27246	664.41449	953.27020	-1152.43848	841.15161	640.39856	-1105.12817	877.77924	470.52274	-1113.89929	835.88110	274.05966	-1075.02734	812.35242	66.53113	-1043.70496	766.09167	33.51834	-1036.80530	960.99451	30.53555	-832.84595	758.72345	618.29279	-855.73749	784.33154	439.28830	-862.12952	630.21063	328.00815	-915.03400	452.52386	211.66460	-970.33362	410.11243	235.45050	-939.24744	479.85400	70.54375	-996.20624	716.25287	1670.00732																		 
161	1.600	-1030.40967	828.47125	1624.96484	-899.55676	804.96130	1626.30762	-1047.41003	710.48212	1561.84985	-918.27039	692.38599	1563.51514	-994.51379	693.26300	1403.40857	-996.10760	681.77838	1090.87061	-977.07764	818.99860	1336.68872	-974.58752	874.53217	1174.76868	-904.37872	643.04437	1224.25159	-1138.63379	792.59204	1370.60840	-1213.98035	773.89557	1172.83081	-1228.32471	762.85052	1050.23572	-1231.61536	759.91675	919.02325	-1208.43652	741.21606	799.41852	-1263.50940	734.51263	811.41486	-1257.24097	713.58502	726.08429	-824.41528	751.21533	1356.94250	-748.67743	777.68463	1138.31775	-733.26654	817.66364	1035.50134	-735.72980	899.22937	927.45728	-768.87085	981.17163	872.86273	-739.33179	950.75775	840.95697	-743.20081	1011.39197	801.38934	-1095.83777	865.56464	942.32471	-861.00769	829.24884	921.46313	-1071.13440	697.02380	963.00403	-922.50446	677.34894	955.33862	-1151.87366	849.56549	641.28583	-1104.59277	881.94482	470.23969	-1113.58887	837.86664	274.05786	-1075.02319	812.35522	66.61850	-1043.69531	766.08154	33.62729	-1036.79626	960.99854	30.46795	-833.41156	778.93854	620.54083	-855.70038	810.27106	442.67703	-862.64117	657.08575	330.85861	-915.72986	480.63681	212.66222	-971.41174	437.08841	234.24626	-937.27350	513.12842	72.62088	-994.79565	729.40369	1671.85669																		 
162	1.610	-1029.20654	841.84863	1626.65369	-898.42615	818.22736	1628.08643	-1046.31348	723.76929	1563.79175	-917.19336	705.56934	1565.59912	-993.94006	706.35669	1405.28625	-996.26923	694.89282	1092.75281	-975.62183	831.88586	1338.60474	-973.12964	887.49615	1176.66797	-905.02423	655.43524	1225.74194	-1137.20386	806.91351	1372.53809	-1212.71997	792.11505	1174.48267	-1227.64380	782.93988	1051.91394	-1230.74634	782.50641	920.68884	-1207.69397	766.07990	800.82245	-1262.75989	759.65619	812.46637	-1256.66248	742.88702	726.74817	-823.40192	762.72064	1358.37415	-748.93188	788.17383	1139.14673	-734.24768	827.65002	1035.74097	-736.77008	906.94519	925.93170	-770.09546	987.81036	869.50769	-740.34467	956.40790	838.28186	-744.67456	1016.52411	796.92065	-1095.82068	878.49994	943.26202	-860.55414	841.76263	923.68182	-1071.22607	710.25330	964.89746	-922.71674	690.20856	957.70850	-1151.29736	858.39728	642.13959	-1103.95801	885.82471	469.97177	-1113.19263	839.81604	274.23859	-1074.72400	812.36768	66.36462	-1043.63086	766.10443	33.88227	-1036.72449	961.07391	30.39070	-833.70215	799.21960	623.07184	-855.64526	835.73206	446.40048	-863.10724	684.03491	333.22360	-916.31708	509.58441	211.71500	-972.19458	464.82266	231.07733	-935.73492	547.99994	73.33591	-986.87793	745.04291	1668.50598																		 
163	1.620	-1027.94226	855.30743	1628.23914	-897.20178	831.59247	1629.70081	-1045.17322	737.06299	1565.68335	-916.12280	718.75488	1567.53247	-993.18286	719.31500	1406.99023	-996.70612	707.97845	1094.52112	-974.19946	844.75360	1340.38879	-971.84045	900.36743	1178.40491	-905.45831	667.78680	1227.17639	-1135.76428	820.97559	1374.50586	-1211.39551	810.26257	1176.29443	-1226.59644	803.24005	1053.67969	-1229.67029	805.43262	922.51874	-1206.75220	791.46436	802.48755	-1261.97266	785.41815	813.90973	-1255.82947	772.80829	727.81445	-822.40485	774.23669	1359.72913	-749.17316	798.54346	1139.88538	-735.20844	837.47351	1035.96887	-737.74536	914.28967	924.31488	-770.88489	993.96069	866.12164	-741.35248	961.56641	835.46997	-746.29688	1020.77991	792.28046	-1095.88538	891.25592	944.07532	-860.30078	854.31140	926.10236	-1071.15320	723.43921	966.54138	-922.75488	703.10535	960.04926	-1150.68604	867.45447	642.75604	-1103.31738	889.55914	469.67990	-1112.80518	841.41486	274.50082	-1075.36218	811.97705	66.95397	-1043.73938	766.60614	33.56353	-1036.63953	961.16058	30.31497	-833.73499	819.34503	625.68719	-855.67816	860.54645	450.36328	-863.49603	710.96820	334.96182	-916.82574	539.61273	209.06165	-972.72681	493.40005	225.92784	-934.59247	584.38409	72.90024	-992.24176	756.37317	1675.09424																		 
